<?xml version="1.0" encoding="UTF-8" standalone="no"?>
<!-- Created with Inkscape (http://www.inkscape.org/) -->

<svg
   xmlns:dc="http://purl.org/dc/elements/1.1/"
   xmlns:cc="http://creativecommons.org/ns#"
   xmlns:rdf="http://www.w3.org/1999/02/22-rdf-syntax-ns#"
   xmlns:svg="http://www.w3.org/2000/svg"
   xmlns="http://www.w3.org/2000/svg"
   xmlns:sodipodi="http://sodipodi.sourceforge.net/DTD/sodipodi-0.dtd"
   xmlns:inkscape="http://www.inkscape.org/namespaces/inkscape"
   width="210mm"
   height="297mm"
   id="svg2"
   version="1.1"
   inkscape:version="0.48.2 r9819"
   sodipodi:docname="grades.svg">
  <defs
     id="defs4" />
  <sodipodi:namedview
     id="base"
     pagecolor="#ffffff"
     bordercolor="#666666"
     borderopacity="1.0"
     inkscape:pageopacity="0.0"
     inkscape:pageshadow="2"
     inkscape:zoom="0.49497475"
     inkscape:cx="-595.35725"
     inkscape:cy="429.44133"
     inkscape:document-units="px"
     inkscape:current-layer="layer1"
     showgrid="false"
     inkscape:window-width="1920"
     inkscape:window-height="1153"
     inkscape:window-x="-4"
     inkscape:window-y="-4"
     inkscape:window-maximized="1">
    <inkscape:grid
       type="xygrid"
       id="grid3009" />
  </sodipodi:namedview>
  <metadata
     id="metadata7">
    <rdf:RDF>
      <cc:Work
         rdf:about="">
        <dc:format>image/svg+xml</dc:format>
        <dc:type
           rdf:resource="http://purl.org/dc/dcmitype/StillImage" />
        <dc:title></dc:title>
      </cc:Work>
    </rdf:RDF>
  </metadata>
  <g
     inkscape:label="Ebene 1"
     inkscape:groupmode="layer"
     id="layer1">
    <path
       style="fill:#009de0;fill-opacity:1;stroke:none;stroke-opacity:1;stroke-width:2.12500000000000000;stroke-miterlimit:4;stroke-dasharray:none"
       d="m 60,142.36218 0,250 140,0 0,-30 c 0,0 0,-10 10,-10 10,0 10,10 10,10 l 0,30 140,0 0,-250 -140,0 0,30 c 0,0 0,10 -10,10 -10,0 -10,-10 -10,-10 l 0,-30 z"
       id="path3011"
       inkscape:connector-curvature="0"
       sodipodi:nodetypes="cccczcccccczccc" />
    <path
       style="fill:#009de0;stroke:none;stroke-width:2.12500000000000000;stroke-linecap:butt;stroke-linejoin:miter;stroke-opacity:1;fill-opacity:1;stroke-miterlimit:4;stroke-dasharray:none"
       d="m 380,142.36218 0,120 c 10,0 20,0 30,0 l 0,130 240,0 0,-130 30,0 0,-120 z"
       id="path3013"
       inkscape:connector-curvature="0"
       sodipodi:nodetypes="ccccccccc" />
    <path
       style="fill:#009de0;fill-opacity:1;stroke:none;stroke-opacity:1;stroke-width:2.12500000000000000;stroke-miterlimit:4;stroke-dasharray:none"
       d="m 213,642.36218 c 0,10 12,30 17,30 l 110,0 20,-250 -125,0 0,20 c 0,0 0,10 -10,10 -10,0 -10,-10 -10,-10 l 0,-15 -10,0 0,15 c 0,0 0,10 -10,10 -10,0 -10,-10 -10,-10 l 0,-20 -125,0 20,250 110,0 c 5,0 17,-20 17,-30"
       id="path3015"
       inkscape:connector-curvature="0"
       sodipodi:nodetypes="cccccczcccczcccccc" />
    <path
       style="fill:#009de0;fill-opacity:1;stroke:none;stroke-opacity:1;stroke-width:2.12500000000000000;stroke-miterlimit:4;stroke-dasharray:none"
       d="m 650,422.36218 c -81.66667,0 -245,0 -245,0 -10,0 -20,10 -20,20 l 0,210 c 0,10 10,20 20,20 l 125,0 c 10,0 20,-10 20,-20 l 5,0 0,20 115,0 0,-120 -30,0 c 0,0 -10,0 -10,-10 0,-10 10,-10 10,-10 l 30,0 c 0,0 0,-60 0,-90 0,-10 -10,-20 -20,-20 z"
       id="path3017"
       inkscape:connector-curvature="0"
       sodipodi:nodetypes="cccccccccccczcccc" />
    <text
       xml:space="preserve"
       style="font-size:9px;font-style:normal;font-weight:normal;line-height:125%;letter-spacing:0px;word-spacing:0px;fill:#000000;fill-opacity:1;stroke:none;font-family:Bitstream Vera Sans"
       x="231.32494"
       y="831.13879"
       id="text5060"
       sodipodi:linespacing="125%"><tspan
         sodipodi:role="line"
         id="tspan5062"></tspan></text>
    <text
       xml:space="preserve"
       style="font-size:9px;font-style:normal;font-weight:normal;line-height:125%;letter-spacing:0px;word-spacing:0px;fill:#000000;fill-opacity:1;stroke:none;font-family:Bitstream Vera Sans"
       x="387.89859"
       y="731.13367"
       id="text5064"
       sodipodi:linespacing="125%"><tspan
         sodipodi:role="line"
         id="tspan5066"></tspan></text>
    <path
       style="fill:#ff0000;fill-opacity:0.60515022;stroke:#000000;stroke-opacity:0.24892703999999999;stroke-width:2.60000000000000010;stroke-miterlimit:4;stroke-dasharray:none;stroke-dashoffset:0"
       d="m 237.22385,595.17836 c -63.70731,-13.661 -126.00568,-55.8304 -149.708067,-101.3364 -23.44984,-45.0212 -1.22839,-114.1306 53.422137,-166.1445 54.5617,-51.9294 130.59487,-83.8902 192.01671,-80.7149 14.12962,0.7304 19.12582,4.3242 20.29932,14.6012 0.96693,8.4679 0.75741,8.5239 -28.10832,7.5219 -19.39642,-0.6733 -35.92869,0.9696 -49.63818,4.9327 -24.94744,7.2118 -76.23276,33.5748 -93.24016,47.9297 -15.98953,11.1717 -28.63686,28.5491 -37.49422,41.5636 -9.1447,11.2184 -22.1885,31.5658 -28.98621,45.2163 -10.78993,21.6673 -12.4189,28.4211 -12.82735,53.1837 -0.61887,37.5196 7.73376,52.914 40.21799,74.1241 29.79545,19.4546 43.67189,25.6667 75.53883,33.8169 79.38665,20.3036 176.81829,7.466 267.31663,-35.2219 63.75897,-30.075 102.276,-62.7326 121.31136,-102.8565 12.72304,-26.8185 13.01467,-66.3267 0.72865,-98.707 -13.94627,-36.7558 -50.97359,-70.5245 -101.38471,-92.4623 -29.29198,-12.7472 -78.86184,-28.657 -89.28611,-28.657 -6.46966,0 -11.76304,-1.5955 -11.76304,-3.5455 0,-7.7501 42.6805,-1.62 78.00285,11.2033 62.58279,22.7198 107.32357,59.4021 131.17358,107.5474 15.37234,31.0317 24.69152,69.9091 19.61931,81.8471 -3.05838,7.1983 -3.8348,11.5468 -4.81746,26.9818 -1.08966,17.1159 -39.8797,68.2496 -52.01744,68.5704 -6.11805,0.1616 -12.61037,5.5768 -10.59527,8.8373 2.18291,3.5321 -10.45529,11.3835 -13.47038,8.3685 -1.07343,-1.0735 -3.65355,1.2282 -5.73353,5.1147 -9.37034,17.5086 -101.59266,52.6549 -173.65926,66.1822 -55.30642,10.3813 -95.43839,10.9978 -136.91766,2.1032 z m 70.91988,-55.8532 c -23.34415,-8.1456 -25.22974,-11.6832 -19.92263,-37.3777 4.53479,-21.9553 4.50146,-22.1685 -4.60036,-29.4261 -11.54769,-9.2077 -11.61019,-14.9474 -0.21926,-20.1375 4.92193,-2.2426 9.94317,-8.0386 11.15829,-12.8801 2.43205,-9.69 -1.07063,-93.6734 -4.40468,-105.6105 -2.87194,-10.2827 6.42534,-13.2317 21.65425,-6.8687 6.67776,2.7901 22.94259,15.3704 36.14406,27.9562 33.31394,31.7601 45.37945,41.3576 51.99278,41.3576 3.1311,0 8.751,3.0581 12.48864,6.7957 3.73762,3.7377 7.51572,6.0757 8.39574,5.1957 0.88001,-0.88 0.88185,2.1569 0.004,6.7488 -1.27878,6.6894 1.69139,10.7661 14.94265,20.5098 43.95093,32.3174 50.61404,42.2985 28.23729,42.2985 -8.55327,0 -14.77045,-2.5346 -19.5683,-7.9776 -3.86763,-4.3877 -13.61756,-15.5895 -21.66657,-24.893 -16.83411,-19.458 -16.66045,-19.4635 -51.77477,1.6445 -39.92199,23.9983 -39.82256,23.8445 -39.82256,61.6023 0,36.9345 -1.27641,38.6554 -23.03811,31.0621 z m 51.52065,-123.5458 c 9.68553,-4.908 17.61005,-10.1793 17.61005,-11.714 0,-3.1773 -18.05822,-20.5173 -33.2748,-31.9513 -17.28626,-12.9893 -18.65508,-10.9385 -14.98606,22.4515 3.76831,34.2938 4.22077,34.6069 30.65081,21.2138 z m 86.69311,-46.4282 c -4.71967,-5.0926 -9.53752,-12.2724 -10.70639,-15.9551 -2.32016,-7.3102 -7.06199,-8.7313 -10.51128,-3.1503 -1.20521,1.9501 -4.88929,3.55 -8.18682,3.5555 -8.9236,0.015 -36.13298,-15.2861 -36.13298,-20.3188 0,-2.4013 6.38205,-7.6219 14.18234,-11.6013 7.80028,-3.9794 14.18233,-8.7072 14.18233,-10.5062 0,-1.799 -3.21942,-8.7274 -7.15431,-15.3965 -6.17762,-10.4703 -6.45442,-12.7065 -2.02751,-16.3806 5.70914,-4.7381 21.65097,1.5372 30.26132,11.912 5.60486,6.7535 9.89806,6.9205 21.55144,0.8385 4.92134,-2.5684 13.94478,-6.4118 20.05209,-8.5408 9.72288,-3.3895 12.02793,-2.8877 18.53036,4.0339 8.78982,9.3563 9.35282,12.7662 2.10785,12.7662 -2.92511,0 -5.31838,1.3696 -5.31838,3.0436 0,1.6739 -8.81032,8.8933 -19.57847,16.0429 -21.92462,14.5572 -21.98035,16.4742 -1.17508,40.4254 12.87331,14.8198 12.73645,18.4909 -0.68926,18.4909 -7.09514,0 -13.75293,-3.1797 -19.38725,-9.2593 z m -54.90072,-161.04 c 0,-1.8889 2.39327,-3.4343 5.31838,-3.4343 2.92511,0 5.31838,0.627 5.31838,1.3934 0,0.7664 -2.39327,2.3119 -5.31838,3.4343 -2.92511,1.1225 -5.31838,0.4955 -5.31838,-1.3934 z"
       id="path5079"
       inkscape:connector-curvature="0"
       sodipodi:nodetypes="sssssssccsssssssssssssscscssscsssssssscssssssssccsssssssccsssscsccsssssssssscs" />
  </g>
</svg>
